<svg class="svg-icon" style="width: 1em;height: 1em;vertical-align: middle;fill: currentColor;overflow: hidden;" viewBox="0 0 1024 1024" version="1.1" xmlns="http://www.w3.org/2000/svg"><path d="M815.15 255.14L656.86 96.85A112.004 112.004 0 0 0 577.71 64H288c-61.86 0-112 50.15-112 112v672c0 61.85 50.14 112 112 112h448c61.86 0 112-50.15 112-112V334.29a112.022 112.022 0 0 0-32.85-79.15z" fill="#DCDAC8" /><path d="M815.15 255.14L656.86 96.85a112.037 112.037 0 0 0-51.52-28.75v238.56H843.9a111.946 111.946 0 0 0-28.75-51.48v-0.04z" fill="#C1BFB0" /><path d="M815.15 255.14L656.86 96.85a111.994 111.994 0 0 0-32.85-22.4V288h213.55a112.457 112.457 0 0 0-22.41-32.86z" fill="#F2EFDC" /></svg>