<svg class="svg-icon" style="width: 1em;height: 1em;vertical-align: middle;fill: currentColor;overflow: hidden;" viewBox="0 0 1024 1024" version="1.1" xmlns="http://www.w3.org/2000/svg"><path d="M848 269.52H505.65c-19.77-0.08-38.7-8-52.64-22.03l-68.32-68.32a74.626 74.626 0 0 0-52.64-22.03H138.67c-41.24 0-74.67 33.43-74.67 74.67v522.67c0 61.85 50.14 112 112 112h672c61.86 0 112-50.15 112-112V381.15c-0.21-61.71-50.29-111.63-112-111.63z" fill="#FFCE00" /><path d="M176 269.52h672c61.86 0 112 50.14 112 112v373.33c0 61.86-50.14 112-112 112H176c-61.86 0-112-50.14-112-112V381.52c0-61.85 50.14-112 112-112z" fill="#FFFF00" /></svg>